Coordinates
version=1
nRows=27
nColumns=12
inDegrees=yes

Units are S.I. units (second, meters, Newtons, ...)
Angles are in degrees

endheader
time	SC_y	SC_z	SC_x	AC_y	AC_z	AC_x	GH_y	GH_z	GH_yy	EL_x	PS_y
       0.0              -52.96         0.7258          58.95          46.61         -14.25         -18.62         -166.5          11.07         -131.1          64.76          109.8
    0.0331              -52.95         0.7264          58.94          46.62         -14.25         -18.62         -166.5          11.07         -131.1          64.75          109.8
    0.0662              -52.95         0.7271          58.94          46.62         -14.24         -18.62         -166.5          11.08         -131.1          64.75          109.8
    0.0993              -52.94         0.7277          58.93          46.62         -14.24         -18.61         -166.5          11.08         -131.1          64.74          109.8
    0.1324              -52.94         0.7284          58.93          46.62         -14.24         -18.61         -166.5          11.08         -131.1          64.74          109.8
    0.1655              -52.93         0.7292          58.92          46.63         -14.24         -18.61         -166.6          11.09         -131.1          64.73          109.8
    0.1986              -52.92           0.73          58.92          46.63         -14.24          -18.6         -166.6          11.09         -131.1          64.73          109.8
    0.2317              -52.92         0.7309          58.91          46.63         -14.24          -18.6         -166.6          11.09         -131.1          64.72          109.8
    0.2648              -52.91         0.7318           58.9          46.64         -14.24         -18.59         -166.6           11.1         -131.1          64.71          109.8
    0.2979               -52.9         0.7328           58.9          46.64         -14.24         -18.59         -166.6           11.1         -131.2           64.7          109.8
     0.331              -52.89         0.7339          58.89          46.64         -14.24         -18.58         -166.6          11.11         -131.2          64.69          109.8
    0.3641              -52.88          0.735          58.88          46.65         -14.23         -18.58         -166.6          11.12         -131.2          64.68          109.8
    0.3972              -52.87         0.7363          58.87          46.65         -14.23         -18.57         -166.6          11.12         -131.2          64.67          109.8
    0.4303              -52.86         0.7376          58.86          46.66         -14.23         -18.57         -166.6          11.13         -131.2          64.66          109.8
    0.4634              -52.85         0.7391          58.85          46.66         -14.23         -18.56         -166.6          11.14         -131.2          64.65          109.8
    0.4965              -52.84         0.7407          58.84          46.67         -14.23         -18.55         -166.6          11.15         -131.2          64.64          109.8
    0.5296              -52.83         0.7424          58.83          46.67         -14.23         -18.54         -166.6          11.15         -131.2          64.62          109.8
    0.5627              -52.81         0.7442          58.81          46.68         -14.22         -18.53         -166.6          11.16         -131.2          64.61          109.9
    0.5958               -52.8         0.7463           58.8          46.69         -14.22         -18.52         -166.6          11.17         -131.2          64.59          109.9
    0.6289              -52.78         0.7485          58.78           46.7         -14.22         -18.51         -166.6          11.19         -131.2          64.57          109.9
     0.662              -52.76          0.751          58.76           46.7         -14.21          -18.5         -166.6           11.2         -131.2          64.55          109.9
    0.6951              -52.74         0.7537          58.74          46.71         -14.21         -18.49         -166.6          11.21         -131.3          64.53          109.9
    0.7282              -52.72         0.7566          58.72          46.73         -14.21         -18.47         -166.6          11.23         -131.3          64.51          109.9
    0.7613              -52.69         0.7599           58.7          46.74          -14.2         -18.46         -166.6          11.24         -131.3          64.48          109.9
    0.7944              -52.66         0.7636          58.67          46.75          -14.2         -18.44         -166.6          11.26         -131.3          64.45          109.9
    0.8275              -52.63         0.7677          58.64          46.77         -14.19         -18.42         -166.6          11.28         -131.3          64.42          109.9
    0.8606              -52.59         0.7723          58.61          46.78         -14.19          -18.4         -166.6          11.31         -131.4          64.38          109.9
